<?xml version="1.0" encoding="utf-8"?>
<!-- Generator: Adobe Illustrator 21.0.0, SVG Export Plug-In . SVG Version: 6.00 Build 0)  -->
<svg version="1.1" id="Layer_1" xmlns="http://www.w3.org/2000/svg" xmlns:xlink="http://www.w3.org/1999/xlink" x="0px" y="0px"
	 viewBox="0 0 1008 936" style="enable-background:new 0 0 1008 936;" xml:space="preserve">
<style type="text/css">
	.st0{fill:#E80000;}
</style>
<path class="st0" d="M317.3,587.7h-49.1v93.5h-83.6v-93.5h-172v-74.6l159.7-263.6h95.9v271.4h49.1V587.7z M184.6,520.8V333.7
	L76.1,520.8H184.6z M356.8,681.1c0.8-31.2,7.5-59.6,20.1-85.4c12.2-29,40.9-59.6,86.3-92c39.3-28.2,64.8-48.3,76.4-60.5
	c17.8-19,26.7-39.7,26.7-62.3c0-18.4-5.1-33.7-15.3-45.8c-10.2-12.2-24.8-18.3-43.7-18.3c-26,0-43.6,9.7-53,29.1
	c-5.4,11.2-8.6,29-9.6,53.3h-83c1.4-36.9,8.1-66.8,20.1-89.6c22.8-43.3,63.3-65,121.5-65c46,0,82.6,12.7,109.8,38.2
	c27.2,25.5,40.8,59.2,40.8,101.1c0,32.2-9.6,60.7-28.8,85.7c-12.6,16.6-33.3,35.1-62.1,55.4l-34.2,24.3c-21.4,15.2-36.1,26.2-44,33
	c-7.9,6.8-14.5,14.7-19.9,23.7h189.6v75.2H356.8L356.8,681.1z M999.8,587.7h-49.1v93.5H867v-93.5h-172v-74.6l159.7-263.6h95.9v271.4
	h49.1V587.7z M867,520.8V333.7L758.6,520.8H867z"/>
</svg>
