<svg xmlns="http://www.w3.org/2000/svg" viewBox="0 0 288.7 50.22"><defs><style>.cls-1{fill:#231f20;}</style></defs><title>Asset 1</title><g id="Layer_2" data-name="Layer 2"><g id="Layer_1-2" data-name="Layer 1"><path class="cls-1" d="M0,.88H19.71V5.74h-14V12.1H18v4.8H5.74V28.49H0Z"></path><path class="cls-1" d="M42.65,26c-2.09,2.15-5.1,3.23-9.06,3.23s-7-1.08-9.06-3.23c-2.8-2.63-4.2-6.44-4.2-11.4s1.4-8.87,4.2-11.4Q27.67,0,33.59,0c4,0,7,1.08,9.06,3.23,2.79,2.53,4.19,6.34,4.19,11.4S45.44,23.4,42.65,26ZM39,21.83q2-2.53,2-7.2T39,7.44A6.57,6.57,0,0,0,33.59,4.9a6.66,6.66,0,0,0-5.47,2.53q-2.06,2.54-2.05,7.2t2.05,7.2a6.66,6.66,0,0,0,5.47,2.53A6.59,6.59,0,0,0,39,21.83Z"></path><path class="cls-1" d="M49.85.84h5.87v17A9.58,9.58,0,0,0,56.39,22q1.05,2.32,4.56,2.33c2.33,0,3.85-.78,4.54-2.33a9.55,9.55,0,0,0,.68-4.16V.84H72v17a14.25,14.25,0,0,1-1.37,6.86Q68.12,29.2,61,29.2t-9.73-4.5a14.13,14.13,0,0,1-1.37-6.86Z"></path><path class="cls-1" d="M122.62.84v4.9h-8.27V28.49h-5.82V5.74h-8.31V.84Z"></path><path class="cls-1" d="M130.88.84l3.65,15.84.8,4.4.79-4.31L139.25.84h6.09l3.29,15.83.84,4.41.85-4.23L154,.84h5.88l-7.78,27.65h-5.53l-3.34-16.17-1-5.34-1,5.34L138,28.49h-5.36L124.75.84Z"></path><path class="cls-1" d="M182.25,26q-3.13,3.22-9.06,3.23T164.13,26c-2.8-2.63-4.2-6.44-4.2-11.4s1.4-8.87,4.2-11.4Q167.27,0,173.19,0t9.06,3.23c2.79,2.53,4.18,6.34,4.18,11.4S185,23.4,182.25,26Zm-3.61-4.2q2-2.53,2-7.2t-2-7.19a6.57,6.57,0,0,0-5.45-2.54,6.65,6.65,0,0,0-5.47,2.53q-2.06,2.54-2.05,7.2t2.05,7.2a7.16,7.16,0,0,0,10.92,0Z"></path><path class="cls-1" d="M200.54,48.8a6.3,6.3,0,0,1-8,0,6.55,6.55,0,0,1-1.84-5,6.45,6.45,0,0,1,1.84-5,6.34,6.34,0,0,1,8,0,6.48,6.48,0,0,1,1.84,5A6.59,6.59,0,0,1,200.54,48.8ZM199,47a5,5,0,0,0,.89-3.16,5,5,0,0,0-.89-3.17,2.9,2.9,0,0,0-2.39-1.11,2.94,2.94,0,0,0-2.41,1.11,4.93,4.93,0,0,0-.9,3.17,4.91,4.91,0,0,0,.9,3.16,2.94,2.94,0,0,0,2.41,1.11A2.9,2.9,0,0,0,199,47Z"></path><path class="cls-1" d="M204.24,37.73h2.66l4.82,8.47V37.73h2.37V49.88h-2.54l-5-8.62v8.62h-2.36Z"></path><path class="cls-1" d="M219.54,37.74h8.66v2.14h-6.14v2.79h5.38v2.11h-5.38v5.1h-2.52Z"></path><path class="cls-1" d="M232.42,37.73h2.87l4.3,12.15h-2.76l-.8-2.5h-4.47l-.83,2.5h-2.65Zm-.17,7.56h3.11l-1.54-4.78Z"></path><path class="cls-1" d="M243.41,49.88h-2.52V37.73h2.52Z"></path><path class="cls-1" d="M257.41,37.74h8.66v2.14h-6.14v2.79h5.38v2.11h-5.38v5.1h-2.52Z"></path><path class="cls-1" d="M270.3,37.73h2.87l4.3,12.15h-2.75l-.8-2.5h-4.48l-.82,2.5H266Zm-.17,7.56h3.11l-1.53-4.78Z"></path><path class="cls-1" d="M280.87,49.88h-2.95l3.9-6.19-3.71-6h3l2.17,4,2.22-4h2.94l-3.72,5.86,3.95,6.29h-3.08l-2.31-4.15Z"></path><path class="cls-1" d="M253.56,38a3,3,0,0,1,1.13.85,3.78,3.78,0,0,1,.61,1,3.44,3.44,0,0,1,.23,1.28,3.65,3.65,0,0,1-.44,1.7,2.42,2.42,0,0,1-1.44,1.18,2.46,2.46,0,0,1,1.25,1,3.94,3.94,0,0,1,.35,1.9v3h-2.6V47.05a2.34,2.34,0,0,0-.41-1.55,2,2,0,0,0-1.44-.39h-2.48v4.77h-2.48V37.73h5.81A5.24,5.24,0,0,1,253.56,38Zm-5.25,1.8V43.1H251a2.78,2.78,0,0,0,1.22-.2,1.36,1.36,0,0,0,.72-1.36,1.53,1.53,0,0,0-.7-1.49,2.54,2.54,0,0,0-1.17-.21Z"></path><path class="cls-1" d="M93,1.56A6.69,6.69,0,0,1,95.6,3.49,8.42,8.42,0,0,1,97,5.81a7.79,7.79,0,0,1,.51,2.91,8.28,8.28,0,0,1-1,3.87,5.59,5.59,0,0,1-3.28,2.7,5.55,5.55,0,0,1,2.85,2.18,9.13,9.13,0,0,1,.8,4.32v6.7H91V24.63l0-2.57c0-1.77-.33-2.94-.91-3.53a4.67,4.67,0,0,0-3.29-.88H81.07V28.49H75.43V.84H88.65A12,12,0,0,1,93,1.56ZM81.07,5.65v7.42h6.22a6.62,6.62,0,0,0,2.78-.45,3.11,3.11,0,0,0,1.64-3.11c0-1.68-.53-2.8-1.59-3.38a5.78,5.78,0,0,0-2.67-.48Z"></path><path class="cls-1" d="M191,.88h19.71V5.74h-14V12.1H209v4.8H196.7V28.49H191Z"></path><path class="cls-1" d="M233.61,26q-3.12,3.22-9.06,3.23T215.5,26c-2.81-2.63-4.21-6.44-4.21-11.4s1.4-8.87,4.21-11.4Q218.62,0,224.55,0t9.06,3.23c2.79,2.53,4.19,6.34,4.19,11.4S236.4,23.4,233.61,26ZM230,21.83q2-2.53,2-7.2t-2-7.19a6.57,6.57,0,0,0-5.45-2.54,6.66,6.66,0,0,0-5.47,2.53Q217,10,217,14.63t2.05,7.2a6.66,6.66,0,0,0,5.47,2.53A6.59,6.59,0,0,0,230,21.83Z"></path><path class="cls-1" d="M240.81.84h5.87v17a9.73,9.73,0,0,0,.67,4.16q1.05,2.32,4.56,2.33T256.46,22a9.73,9.73,0,0,0,.67-4.16V.84H263v17a14.25,14.25,0,0,1-1.37,6.86c-1.7,3-4.93,4.5-9.72,4.5s-8-1.5-9.73-4.5a14.25,14.25,0,0,1-1.37-6.86Z"></path><path class="cls-1" d="M284,1.56a6.73,6.73,0,0,1,2.58,1.93A8.42,8.42,0,0,1,288,5.81a7.78,7.78,0,0,1,.52,2.91,8.29,8.29,0,0,1-1,3.87,5.59,5.59,0,0,1-3.28,2.7A5.55,5.55,0,0,1,287,17.47a9.13,9.13,0,0,1,.8,4.32v6.7h-5.92V24.63l0-2.57c0-1.77-.33-2.94-.91-3.53a4.65,4.65,0,0,0-3.29-.88H272V28.49h-5.65V.84h13.22A12.08,12.08,0,0,1,284,1.56ZM272,5.65v7.42h6.21a6.62,6.62,0,0,0,2.78-.45,3.11,3.11,0,0,0,1.64-3.11c0-1.68-.53-2.8-1.59-3.38a5.78,5.78,0,0,0-2.67-.48Z"></path></g></g></svg>